<svg xmlns="http://www.w3.org/2000/svg" width="31" height="21.001" viewBox="0 0 31 21.001">
  <g id="yes.svg" transform="translate(-250 -2615.999)">
    <g id="yes.svg-2" data-name="yes.svg" transform="translate(250 2616)">
      <path id="Path_16" data-name="Path 16" d="M30.551.424a1.59,1.59,0,0,0-2.164,0L10.4,17.493,2.614,10.108a1.591,1.591,0,0,0-2.165,0,1.4,1.4,0,0,0,0,2.055l8.867,8.413a1.592,1.592,0,0,0,2.166,0l19.07-18.1A1.4,1.4,0,0,0,30.551.424Z"/>
    </g>
    <path id="Color_Overlay" data-name="Color Overlay" d="M259.315,2636.575l-8.867-8.413a1.4,1.4,0,0,1,0-2.055,1.591,1.591,0,0,1,2.164,0l7.784,7.385,17.99-17.068a1.588,1.588,0,0,1,2.164,0,1.4,1.4,0,0,1,0,2.056l-19.069,18.1a1.593,1.593,0,0,1-2.166,0Z" fill="#3dc644"/>
  </g>
</svg>
