<svg xmlns="http://www.w3.org/2000/svg" width="27" height="26.001" viewBox="0 0 27 26.001">
  <g id="no.svg" transform="translate(-251.999 -2672)">
    <g id="no.svg-2" data-name="no.svg" transform="translate(252 2672)">
      <path id="Path_18" data-name="Path 18" d="M15.641,13,26.556,2.49a1.419,1.419,0,0,0,0-2.061,1.555,1.555,0,0,0-2.141,0L13.5,10.939,2.586.427a1.555,1.555,0,0,0-2.141,0,1.419,1.419,0,0,0,0,2.061L11.36,13,.443,23.512a1.418,1.418,0,0,0,0,2.06,1.557,1.557,0,0,0,2.142,0L13.5,15.062l10.915,10.51a1.553,1.553,0,0,0,2.141,0,1.418,1.418,0,0,0,0-2.06Z"/>
    </g>
    <path id="Color_Overlay" data-name="Color Overlay" d="M276.415,2697.572l-10.914-10.51-10.916,10.51a1.555,1.555,0,0,1-2.142,0,1.418,1.418,0,0,1,0-2.06L263.36,2685l-10.914-10.512a1.418,1.418,0,0,1,0-2.061,1.554,1.554,0,0,1,2.14,0l10.915,10.512,10.914-10.51a1.555,1.555,0,0,1,2.141,0,1.419,1.419,0,0,1,0,2.061L267.641,2685l10.915,10.511a1.418,1.418,0,0,1,0,2.06,1.552,1.552,0,0,1-2.141,0Z" fill="#f25b26"/>
  </g>
</svg>
